<?xml version="1.0" encoding="utf-8"?>
<!-- Generator: Adobe Illustrator 15.0.0, SVG Export Plug-In . SVG Version: 6.00 Build 0)  -->
<!DOCTYPE svg PUBLIC "-//W3C//DTD SVG 1.1//EN" "http://www.w3.org/Graphics/SVG/1.1/DTD/svg11.dtd">
<!-- Generator: --> 
<svg version="1.1" id="Layer_1" xmlns="http://www.w3.org/2000/svg" xmlns:xlink="http://www.w3.org/1999/xlink" x="0px" y="0px" width="100%" height="100%" viewBox="0 0 1920 1080" enable-background="new 0 0 1920 1080" xml:space="preserve">
	<style type="text/css">

			path{
			-webkit-transition:1s ease-in-out ;
			opacity:3 !important;

		}



		<!-- .filter{
			fill:#28bead;
			 animation: ufo-big .3s ease infinite;
		}
		@keyframes ufo-big {
			  0%        {opacity: 0}
			  15%, 70%  {opacity: .6}
			  85%, 100% {opacity: 0}
			} -->

</style>
<image overflow="visible" width="1920" height="1080" xlink:href="master-00.jpg"  ></image>
	<g  id="FRAME_0"  fill-rule="evenodd">
		<!-- <path style="fill:rgb(0,0,0);opacity:1;stroke-width:0"
		 d="M0.000000,141.500000 L0.000000,0.000000 L1918.849976,0.000000 L1919.099976,141.500000 L1919.099976,1079.000000 L1917.599976,1079.099976 L0.000000,1079.099976 L0.000000,141.500000 M895.849976,314.000000 L883.000000,316.100006 L882.349976,316.250000 L882.349976,317.100006 L879.099976,316.850006 L865.849976,318.850006 L865.599976,320.000000 L865.849976,320.100006 L876.099976,321.850006 L876.349976,341.350006 L870.099976,342.600006 L869.750000,345.250000 L862.000000,346.850006 L849.500000,344.250000 L818.000000,349.750000 L817.250000,349.850006 L817.599976,351.500000 L817.849976,361.350006 L817.599976,361.500000 L817.599976,363.750000 L817.500000,364.000000 L795.750000,359.600006 L794.750000,359.850006 L794.849976,361.500000 L794.849976,362.500000 L790.500000,361.600006 L790.250000,360.750000 L776.349976,358.250000 L750.099976,362.750000 L749.500000,342.750000 L760.599976,340.850006 L760.599976,339.850006 L760.250000,339.600006 L749.349976,337.500000 L749.099976,337.350006 L747.250000,337.100006 L738.000000,335.350006 L723.349976,337.750000 L722.599976,337.850006 L722.750000,339.000000 L719.099976,338.350006 L703.599976,340.850006 L703.349976,342.100006 L703.750000,342.250000 L713.599976,344.250000 L714.500000,368.600006 L664.500000,377.350006 L664.250000,379.000000 L664.599976,379.100006 L664.849976,389.850006 L665.000000,392.350006 L686.500000,397.350006 L687.250000,417.500000 L667.349976,421.100006 L666.750000,421.250000 L666.849976,422.000000 L667.599976,422.250000 L668.099976,432.250000 L668.099976,433.250000 L668.099976,433.750000 L667.500000,433.750000 L667.349976,434.500000 L667.000000,434.600006 L667.099976,437.100006 L683.349976,441.350006 L688.500000,442.750000 L689.099976,461.250000 L669.000000,465.500000 L668.849976,466.350006 L669.599976,466.600006 L670.000000,475.350006 L670.000000,477.850006 L669.750000,477.850006 L669.349976,478.000000 L669.099976,478.750000 L668.849976,478.850006 L669.099976,481.250000 L690.349976,487.350006 L690.349976,489.850006 L692.099976,531.349976 L692.250000,535.000000 L692.500000,538.500000 L693.849976,571.849976 L694.000000,574.849976 L695.750000,617.750000 L697.500000,660.000000 L698.000000,672.349976 L698.250000,676.599976 L699.250000,701.599976 L700.599976,702.099976 L700.750000,702.250000 L705.099976,704.099976 L706.849976,704.849976 L707.849976,729.500000 L716.099976,732.849976 L720.000000,731.599976 L719.250000,710.000000 L726.099976,712.599976 L727.599976,713.250000 L743.099976,708.250000 L760.599976,715.349976 L761.849976,752.500000 L770.500000,756.000000 Q771.000000,756.349976 774.599976,754.750000 L773.599976,722.000000 L799.750000,732.500000 L800.250000,732.599976 L809.349976,729.349976 L809.500000,735.250000 L810.500000,773.099976 L819.750000,777.000000 L823.750000,775.599976 L823.000000,741.099976 L835.750000,746.099976 L835.849976,746.250000 L836.500000,746.099976 L855.500000,753.849976 L856.099976,792.599976 L865.849976,796.599976 L869.849976,795.099976 L869.250000,756.250000 L877.000000,753.349976 L877.349976,752.599976 L893.250000,746.750000 L893.599976,746.849976 L917.250000,738.000000 L931.250000,743.349976 L933.349976,742.599976 L951.349976,735.849976 L951.599976,759.349976 L952.099976,759.849976 L955.000000,760.849976 L957.349976,760.250000 L964.849976,757.099976 L964.750000,730.599976 L964.750000,719.849976 L988.849976,710.750000 L988.750000,708.500000 L988.599976,707.349976 L988.349976,707.250000 L996.349976,704.250000 L1011.349976,709.349976 L1011.750000,709.349976 L1011.599976,731.849976 L1015.000000,733.000000 L1016.250000,732.849976 L1024.250000,729.599976 L1024.500000,704.500000 L1040.599976,698.099976 L1042.250000,697.599976 L1042.349976,689.500000 L1042.500000,686.599976 L1056.099976,681.599976 L1055.750000,693.849976 L1055.599976,709.849976 L1065.250000,713.099976 L1068.500000,712.000000 L1068.750000,698.349976 L1069.000000,676.750000 L1069.099976,674.599976 L1069.599976,645.349976 L1069.750000,637.849976 L1069.750000,636.599976 L1069.750000,633.349976 L1069.849976,632.599976 L1070.349976,604.500000 L1070.349976,597.349976 L1070.500000,595.599976 L1070.500000,595.349976 L1070.500000,592.750000 L1071.000000,563.250000 L1071.099976,555.849976 L1071.099976,554.000000 L1071.250000,553.750000 L1071.250000,551.500000 L1071.599976,538.599976 L1071.750000,521.349976 L1071.849976,513.750000 L1071.849976,512.000000 L1072.000000,509.600006 L1072.599976,478.850006 L1072.599976,471.250000 L1072.599976,469.350006 L1072.750000,467.100006 L1073.250000,444.250000 L1073.250000,441.500000 L1073.349976,435.850006 L1073.349976,428.100006 L1073.349976,426.250000 L1073.500000,423.850006 L1073.750000,414.600006 L1073.750000,411.850006 L1073.849976,410.850006 L1074.099976,392.250000 L1074.099976,384.500000 L1074.250000,382.750000 L1074.099976,382.600006 L1074.250000,380.100006 L1073.750000,380.000000 L1073.849976,369.600006 L1074.000000,368.000000 L1055.750000,364.600006 L1051.750000,364.000000 L1052.000000,349.600006 L1064.349976,347.100006 L1064.000000,345.850006 L1052.000000,343.750000 L1051.750000,343.350006 L1050.599976,343.100006 L1048.500000,343.250000 L1037.750000,341.500000 L1024.500000,344.000000 L1024.099976,345.100006 L1021.099976,344.850006 L1007.849976,347.100006 L1007.349976,347.250000 L1007.349976,348.500000 L1020.250000,350.750000 L1020.099976,358.250000 L1001.750000,355.000000 L981.599976,351.750000 L981.500000,349.500000 L981.349976,346.850006 L981.000000,346.850006 L956.849976,342.500000 L914.250000,335.000000 L907.500000,336.000000 L907.250000,320.850006 L918.599976,319.000000 L918.099976,317.750000 L907.349976,315.850006 L907.000000,315.750000 L904.750000,315.500000 L895.849976,314.000000 M902.099976,320.750000 L903.099976,320.850006 L903.250000,336.750000 L880.750000,340.600006 L880.500000,322.600006 L888.349976,323.850006 L902.000000,321.750000 L902.099976,320.750000 M744.849976,343.350006 L745.349976,363.350006 L719.250000,367.750000 L718.500000,345.250000 L725.500000,346.500000 L740.849976,344.100006 L741.500000,344.000000 L741.500000,342.750000 L744.849976,343.350006 M850.500000,346.250000 L853.500000,346.850006 L853.500000,348.250000 L853.000000,349.500000 L852.849976,349.500000 L852.250000,349.350006 L851.000000,349.100006 L850.849976,349.100006 L850.500000,349.000000 L850.500000,346.250000 M853.849976,347.000000 L857.500000,347.600006 L857.250000,350.250000 L856.849976,350.250000 L856.750000,350.250000 L855.349976,350.000000 L854.349976,349.750000 L854.099976,349.750000 L853.849976,347.000000 M839.000000,348.000000 L848.599976,346.250000 L848.599976,349.000000 L847.349976,349.250000 L846.000000,349.500000 L845.250000,349.600006 L844.500000,349.750000 L843.849976,349.850006 L843.099976,350.000000 L842.349976,350.100006 L841.750000,350.250000 L841.000000,350.350006 L840.250000,350.500000 L839.750000,350.600006 L839.349976,350.600006 L839.000000,348.000000 M869.849976,347.100006 L869.750000,350.000000 L869.250000,350.000000 L869.099976,350.000000 L868.349976,350.100006 L867.599976,350.250000 L867.000000,350.350006 L866.250000,350.500000 L865.599976,350.600006 L864.849976,350.750000 L864.099976,350.850006 L863.599976,351.000000 L863.500000,351.000000 L863.099976,351.100006 L863.099976,348.250000 L869.849976,347.100006 M857.849976,347.750000 L861.250000,348.350006 L861.349976,351.000000 L860.099976,350.850006 L860.000000,350.850006 L859.349976,350.750000 L858.099976,350.500000 L858.000000,350.500000 L857.750000,350.500000 L857.849976,347.750000 M838.599976,349.350006 L838.500000,350.750000 L837.599976,351.000000 L837.250000,351.000000 L835.849976,351.250000 L835.099976,351.350006 L834.349976,351.500000 L833.750000,351.600006 L833.000000,351.750000 L832.250000,351.850006 L831.750000,352.000000 L831.500000,352.100006 L831.000000,352.100006 L828.849976,351.600006 L828.849976,349.750000 L838.599976,348.000000 L838.599976,349.350006 M828.500000,350.100006 L828.500000,351.600006 L823.750000,350.600006 L828.250000,349.750000 L828.500000,350.100006 M853.349976,350.350006 L853.599976,350.850006 L853.599976,351.250000 L853.250000,352.850006 L853.099976,352.850006 L852.500000,352.750000 L851.849976,352.600006 L850.599976,352.350006 L850.500000,352.350006 L850.349976,349.850006 L853.349976,350.350006 M857.349976,351.100006 L857.500000,353.600006 L856.349976,353.500000 L856.250000,353.500000 L855.599976,353.350006 L854.599976,353.100006 L854.500000,353.100006 L854.000000,353.000000 L854.000000,350.600006 L857.349976,351.100006 M839.099976,351.600006 L848.750000,349.850006 L848.750000,352.350006 L848.500000,352.350006 L847.849976,352.500000 L847.099976,352.600006 L846.349976,352.750000 L845.750000,352.850006 L845.000000,353.000000 L844.500000,353.100006 L844.099976,353.100006 L843.599976,353.250000 L843.099976,353.350006 L842.750000,353.350006 L842.500000,353.500000 L842.000000,353.500000 L841.500000,353.600006 L841.000000,353.750000 L840.599976,353.750000 L840.349976,353.850006 L839.849976,353.850006 L839.599976,354.000000 L839.099976,354.000000 L839.099976,351.600006 M861.250000,351.850006 L861.099976,354.350006 L860.849976,354.350006 L860.250000,354.250000 L858.849976,354.000000 L858.349976,353.850006 L858.250000,353.850006 L858.000000,353.750000 L857.849976,351.350006 L861.250000,351.850006 M863.099976,351.850006 L869.849976,350.750000 L869.849976,353.250000 L869.599976,353.250000 L868.849976,353.350006 L868.250000,353.500000 L867.500000,353.600006 L866.849976,353.750000 L866.099976,353.850006 L865.500000,354.000000 L864.750000,354.100006 L864.099976,354.250000 L863.500000,354.350006 L863.250000,354.350006 L863.099976,351.850006 M838.750000,352.250000 L838.599976,354.100006 L838.500000,354.100006 L838.250000,354.250000 L837.750000,354.250000 L837.099976,354.350006 L836.349976,354.500000 L836.099976,354.600006 L835.599976,354.600006 L835.000000,354.750000 L834.250000,354.850006 L833.849976,355.000000 L833.500000,355.000000 L832.849976,355.100006 L832.099976,355.250000 L831.750000,355.350006 L831.500000,355.350006 L831.349976,353.850006 L831.750000,353.750000 L831.750000,352.750000 L838.750000,351.600006 L838.750000,352.250000 M822.099976,352.350006 L822.250000,352.600006 L822.250000,353.500000 L819.250000,354.000000 L819.250000,351.750000 L822.099976,352.350006 M825.500000,353.000000 L822.599976,353.500000 L822.599976,352.350006 L825.500000,353.000000 M1033.750000,353.000000 L1047.250000,350.500000 L1047.099976,363.100006 L1024.849976,359.500000 L1025.000000,351.500000 L1033.750000,353.000000 M853.500000,353.750000 L853.599976,354.250000 L853.599976,356.500000 L850.599976,355.850006 L850.500000,353.250000 L853.500000,353.750000 M829.000000,354.250000 L829.849976,354.100006 L829.750000,355.750000 L829.000000,355.750000 L829.000000,354.250000 M987.500000,354.350006 L987.250000,357.250000 L986.099976,357.000000 L986.000000,357.000000 L984.599976,356.750000 L983.250000,356.500000 L982.000000,356.250000 L981.849976,356.250000 L981.599976,356.250000 L981.599976,353.350006 L987.500000,354.350006 M857.500000,354.500000 L857.500000,354.750000 L857.599976,356.500000 L857.599976,357.250000 L854.250000,356.600006 L854.099976,353.850006 L857.500000,354.500000 M827.000000,354.600006 L828.349976,354.350006 L828.500000,355.250000 L828.500000,355.750000 L827.000000,355.500000 L827.000000,354.600006 M839.250000,354.850006 L848.599976,353.250000 L848.750000,355.850006 L839.349976,357.500000 L839.250000,354.850006 M826.000000,354.850006 L826.099976,355.350006 L824.750000,355.000000 L826.000000,354.850006 M861.250000,355.250000 L861.349976,358.000000 L858.099976,357.350006 L858.000000,354.600006 L861.250000,355.250000 M863.250000,355.250000 L869.849976,354.100006 L870.000000,356.750000 L863.250000,357.850006 L863.250000,355.250000 M831.500000,356.350006 L838.750000,355.000000 L838.750000,357.750000 L838.500000,357.750000 L831.500000,356.350006 M820.000000,356.100006 L822.099976,356.500000 L822.099976,357.100006 L821.750000,357.100006 L821.599976,357.100006 L821.000000,357.250000 L820.349976,357.350006 L820.099976,357.350006 L820.000000,356.100006 M1001.750000,357.000000 L1015.500000,359.500000 L1015.250000,362.250000 L1015.099976,362.250000 L1014.349976,362.100006 L1013.750000,362.000000 L1013.000000,361.850006 L1011.599976,361.600006 L1010.849976,361.500000 L1010.250000,361.350006 L1009.500000,361.250000 L1008.849976,361.100006 L1008.099976,361.000000 L1007.500000,360.850006 L1006.750000,360.750000 L1006.099976,360.600006 L1005.349976,360.500000 L1004.750000,360.350006 L1004.000000,360.250000 L1003.349976,360.100006 L1002.750000,360.000000 L1002.599976,360.000000 L1001.750000,359.750000 L1001.349976,359.750000 L1001.250000,359.750000 L1000.500000,359.600006 L999.849976,359.500000 L999.099976,359.350006 L998.500000,359.250000 L997.750000,359.100006 L997.099976,359.000000 L996.349976,358.850006 L995.750000,358.750000 L995.000000,358.600006 L994.349976,358.500000 L993.599976,358.350006 L992.250000,358.100006 L991.500000,358.000000 L990.849976,357.850006 L990.099976,357.750000 L989.500000,357.600006 L988.849976,357.500000 L988.750000,357.500000 L988.750000,354.600006 L1001.750000,357.000000 M825.750000,357.250000 L826.099976,357.250000 L826.099976,357.500000 L826.099976,357.600006 L826.000000,357.600006 L825.750000,357.750000 L825.250000,357.750000 L825.000000,357.850006 L824.349976,357.850006 L824.349976,357.500000 L825.750000,357.250000 M987.500000,358.000000 L987.349976,360.600006 L986.099976,360.350006 L986.000000,360.350006 L984.599976,360.100006 L983.250000,359.850006 L982.599976,359.750000 L982.000000,359.600006 L981.849976,359.600006 L981.500000,359.600006 L981.500000,357.000000 L987.500000,358.000000 M822.000000,358.000000 L822.250000,358.250000 L821.750000,358.350006 L821.349976,358.350006 L821.000000,358.100006 L822.000000,358.000000 M826.849976,358.350006 L828.599976,358.100006 L828.599976,359.500000 L827.849976,359.500000 L827.000000,359.500000 L826.849976,358.350006 M831.500000,358.350006 L832.849976,358.600006 L831.500000,358.850006 L831.500000,358.350006 M824.349976,358.850006 L826.099976,358.500000 L826.000000,359.250000 L824.349976,358.850006 M1020.099976,360.250000 L1020.000000,363.100006 L1019.849976,363.100006 L1019.250000,363.000000 L1018.500000,362.850006 L1017.849976,362.750000 L1017.099976,362.600006 L1016.599976,362.500000 L1016.500000,362.500000 L1016.000000,362.350006 L1016.000000,359.500000 L1020.099976,360.250000 M822.250000,360.350006 L822.349976,360.500000 L822.349976,360.600006 L820.000000,361.000000 L820.099976,359.850006 L822.250000,360.350006 M780.500000,360.750000 L780.750000,361.350006 L777.500000,362.000000 L777.500000,360.100006 L780.500000,360.750000 M988.349976,360.850006 L988.500000,358.250000 L1001.750000,360.750000 L1015.349976,363.100006 L1015.250000,365.750000 L1014.750000,365.600006 L1014.599976,365.600006 L1013.250000,365.350006 L1011.849976,365.100006 L1010.500000,364.850006 L1009.099976,364.600006 L1007.750000,364.350006 L1006.500000,364.100006 L1006.349976,364.100006 L1001.750000,363.100006 L1001.250000,363.100006 L1001.099976,363.100006 L999.750000,362.850006 L998.349976,362.600006 L997.000000,362.350006 L995.599976,362.100006 L994.250000,361.850006 L992.849976,361.600006 L991.500000,361.350006 L990.099976,361.100006 L988.849976,360.850006 L988.750000,360.850006 L988.349976,360.850006 M782.349976,361.100006 L781.099976,361.350006 L781.099976,360.850006 L782.349976,361.100006 M987.349976,361.500000 L987.349976,364.000000 L981.500000,363.000000 L981.500000,360.350006 L987.349976,361.500000 M775.500000,362.350006 L773.750000,362.750000 L770.750000,363.250000 L758.599976,365.250000 L758.349976,363.000000 L775.500000,360.000000 L775.500000,362.350006 M796.099976,362.750000 L796.099976,361.750000 L815.349976,365.600006 L815.349976,366.100006 L815.250000,366.600006 L802.599976,364.100006 L799.500000,364.600006 L799.250000,363.500000 L798.750000,363.350006 L796.099976,362.750000 M758.000000,363.250000 L757.849976,365.500000 L756.599976,365.750000 L756.500000,366.350006 L755.849976,366.350006 L755.750000,366.350006 L750.250000,367.350006 L750.250000,364.350006 L757.750000,363.100006 L758.000000,363.250000 M1024.849976,364.100006 L1024.849976,361.100006 L1043.750000,364.500000 L1043.500000,367.250000 L1042.849976,367.250000 L1042.750000,367.250000 L1041.349976,367.000000 L1040.000000,366.750000 L1039.250000,366.600006 L1038.599976,366.500000 L1037.849976,366.350006 L1037.250000,366.250000 L1036.500000,366.100006 L1035.849976,366.000000 L1035.099976,365.850006 L1034.500000,365.750000 L1033.750000,365.600006 L1032.349976,365.350006 L1031.599976,365.250000 L1031.000000,365.100006 L1030.250000,365.000000 L1029.599976,364.850006 L1028.849976,364.750000 L1028.250000,364.600006 L1027.500000,364.500000 L1026.849976,364.350006 L1026.099976,364.250000 L1025.599976,364.100006 L1025.500000,364.100006 L1024.849976,364.100006 M1020.099976,364.000000 L1020.000000,366.600006 L1018.849976,366.350006 L1018.750000,366.350006 L1017.349976,366.100006 L1016.099976,365.850006 L1016.000000,365.850006 L1016.000000,363.250000 L1020.099976,364.000000 M1001.750000,364.100006 L1015.500000,366.600006 L1015.500000,369.100006 L1001.750000,366.600006 L988.599976,364.250000 L988.500000,361.750000 L1001.750000,364.100006 M1047.000000,365.000000 L1047.000000,368.000000 L1046.349976,367.850006 L1046.250000,367.850006 L1045.500000,367.750000 L1044.849976,367.600006 L1044.099976,367.500000 L1044.099976,364.600006 L1047.000000,365.000000 M740.750000,366.100006 L745.500000,365.250000 L745.599976,368.250000 L744.500000,368.350006 L744.349976,368.350006 L742.250000,368.750000 L741.599976,368.850006 L741.500000,368.850006 L740.849976,369.000000 L740.750000,366.100006 M817.599976,366.100006 L817.750000,368.850006 L815.849976,368.600006 L816.750000,368.100006 L816.500000,367.000000 L815.849976,366.750000 L815.849976,365.750000 L817.599976,366.100006 M740.250000,366.250000 L740.250000,366.850006 L740.349976,367.600006 L740.349976,369.100006 L740.099976,369.100006 L739.349976,369.250000 L738.000000,369.500000 L737.250000,369.600006 L735.849976,369.850006 L735.099976,370.000000 L734.349976,370.100006 L733.750000,370.250000 L733.000000,370.350006 L732.250000,370.500000 L731.599976,370.600006 L730.849976,370.750000 L730.099976,370.850006 L729.500000,371.000000 L728.750000,371.100006 L728.000000,371.250000 L727.349976,371.350006 L726.599976,371.500000 L725.849976,371.600006 L724.500000,371.850006 L723.849976,372.000000 L723.750000,372.000000 L723.000000,372.100006 L722.750000,369.250000 L740.000000,366.250000 L740.250000,366.250000 M1055.599976,366.600006 L1067.849976,368.850006 L1060.000000,370.500000 L1058.099976,370.000000 L1058.000000,370.000000 L1056.750000,369.750000 L1056.599976,369.750000 L1055.599976,369.500000 L1055.250000,369.500000 L1051.599976,368.750000 L1051.750000,366.000000 L1055.599976,366.600006 M758.099976,367.600006 L757.849976,369.500000 L750.349976,370.850006 L750.349976,368.100006 L756.849976,367.100006 L758.099976,367.600006 M1020.000000,367.350006 L1020.099976,370.000000 L1016.000000,369.350006 L1016.000000,366.750000 L1020.000000,367.350006 M1024.750000,367.500000 L1024.849976,364.850006 L1043.500000,368.250000 L1043.349976,370.850006 L1042.849976,370.750000 L1042.750000,370.750000 L1041.349976,370.500000 L1040.000000,370.250000 L1038.599976,370.000000 L1038.000000,369.850006 L1037.250000,369.750000 L1036.599976,369.600006 L1035.849976,369.500000 L1035.250000,369.350006 L1034.500000,369.250000 L1033.849976,369.100006 L1033.099976,369.000000 L1032.500000,368.850006 L1031.750000,368.750000 L1031.099976,368.600006 L1030.349976,368.500000 L1029.750000,368.350006 L1029.000000,368.250000 L1028.349976,368.100006 L1027.599976,368.000000 L1027.000000,367.850006 L1026.250000,367.750000 L1025.750000,367.600006 L1025.599976,367.600006 L1024.750000,367.500000 M763.349976,368.500000 L758.599976,369.350006 L758.500000,367.500000 L763.349976,368.500000 M1047.000000,368.850006 L1046.849976,371.500000 L1046.250000,371.350006 L1046.099976,371.350006 L1045.500000,371.250000 L1044.099976,371.000000 L1044.099976,368.350006 L1047.000000,368.850006 M815.349976,369.350006 L815.500000,371.750000 L815.500000,372.000000 L806.849976,370.100006 L813.099976,369.000000 L815.349976,369.350006 M719.349976,369.750000 L721.349976,369.500000 L721.750000,372.350006 L721.599976,372.350006 L720.349976,372.600006 L720.250000,372.600006 L719.599976,372.750000 L719.349976,369.750000 M770.349976,369.850006 L771.000000,369.850006 L771.000000,370.850006 L758.750000,373.000000 L758.599976,370.250000 L765.750000,369.000000 L770.349976,369.850006 M817.750000,369.850006 L817.849976,372.350006 L816.000000,372.250000 L816.000000,369.500000 L817.750000,369.850006 M740.849976,369.850006 L745.500000,369.100006 L745.750000,371.750000 L744.599976,371.850006 L744.500000,371.850006 L742.500000,372.250000 L742.349976,372.250000 L741.000000,372.500000 L740.849976,369.850006 M1055.599976,370.500000 L1057.849976,370.850006 L1055.599976,371.350006 L1051.599976,372.100006 L1051.599976,369.750000 L1055.599976,370.500000 M803.349976,370.750000 L804.099976,370.600006 L815.500000,373.000000 L815.599976,374.100006 L815.599976,375.600006 L803.500000,373.100006 L803.349976,370.750000 M1024.750000,371.000000 L1024.750000,368.350006 L1043.599976,371.750000 L1043.599976,372.350006 L1043.599976,373.750000 L1043.599976,373.850006 L1042.099976,374.100006 L1024.750000,371.000000 M758.099976,371.100006 L758.250000,372.100006 L758.250000,373.100006 L750.349976,374.500000 L750.500000,371.600006 L758.099976,370.350006 L758.099976,371.100006 M1065.500000,371.350006 L1072.099976,370.000000 L1072.000000,372.500000 L1071.849976,372.500000 L1065.500000,371.350006 M797.250000,371.850006 L798.500000,371.600006 L798.500000,372.000000 L797.250000,371.850006 M1047.000000,372.350006 L1047.000000,373.100006 L1044.099976,373.750000 L1044.099976,371.850006 L1047.000000,372.350006 M704.000000,372.500000 L714.599976,370.600006 L714.599976,373.600006 L714.500000,373.600006 L713.099976,373.850006 L711.099976,374.250000 L710.750000,374.250000 L708.599976,374.600006 L706.500000,375.000000 L704.500000,375.350006 L704.349976,375.350006 L704.000000,375.500000 L704.000000,372.500000 M740.349976,372.600006 L740.250000,372.600006 L738.849976,372.850006 L738.099976,373.000000 L737.500000,373.100006 L736.750000,373.250000 L735.349976,373.500000 L734.599976,373.600006 L733.250000,373.850006 L732.500000,374.000000 L731.849976,374.100006 L731.099976,374.250000 L730.349976,374.350006 L729.750000,374.500000 L729.000000,374.600006 L727.599976,374.850006 L726.849976,375.000000 L726.250000,375.100006 L725.500000,375.250000 L724.750000,375.350006 L724.099976,375.500000 L723.500000,375.600006 L723.099976,375.600006 L723.000000,373.000000 L740.250000,370.000000 L740.349976,372.600006 M1059.000000,372.750000 L1063.349976,371.850006 L1070.599976,373.250000 L1070.500000,373.250000 L1064.000000,374.500000 L1061.349976,374.100006 L1061.250000,374.100006 L1060.000000,373.850006 L1059.849976,373.850006 L1059.000000,373.750000 L1059.000000,372.750000 M1056.599976,373.250000 L1058.349976,372.850006 L1058.250000,373.600006 L1057.250000,373.350006 L1057.099976,373.350006 L1056.599976,373.250000 M817.849976,373.350006 L817.750000,376.000000 L816.250000,375.750000 L816.099976,373.100006 L817.849976,373.350006 M741.000000,373.350006 L745.599976,372.600006 L745.849976,375.350006 L741.099976,376.100006 L741.000000,373.350006 M719.500000,373.600006 L721.750000,373.250000 L721.750000,375.850006 L721.250000,376.000000 L720.000000,376.250000 L719.750000,376.250000 L719.500000,373.600006 M703.349976,373.750000 L703.500000,374.600006 L703.500000,375.600006 L702.349976,375.750000 L702.250000,375.750000 L701.500000,375.850006 L700.099976,376.100006 L699.349976,376.250000 L698.000000,376.500000 L697.250000,376.600006 L695.849976,376.850006 L695.099976,377.000000 L694.349976,377.100006 L693.750000,377.250000 L693.000000,377.350006 L692.250000,377.500000 L691.599976,377.600006 L690.849976,377.750000 L690.099976,377.850006 L689.500000,378.000000 L688.750000,378.100006 L688.000000,378.250000 L686.599976,378.500000 L686.000000,378.600006 L685.599976,378.600006 L685.349976,375.750000 L703.349976,372.600006 L703.349976,373.750000 M1055.500000,374.000000 L1058.250000,374.350006 L1058.349976,375.750000 L1058.000000,375.850006 L1057.349976,376.000000 L1056.349976,376.250000 L1056.250000,376.250000 L1055.500000,376.250000 L1055.099976,376.500000 L1054.750000,376.500000 L1052.599976,376.000000 L1051.599976,375.850006 L1051.599976,374.750000 L1051.599976,374.250000 L1054.349976,373.750000 L1055.500000,374.000000 M740.500000,374.850006 L740.599976,375.500000 L740.599976,376.250000 L723.250000,379.350006 L723.000000,376.500000 L740.500000,373.500000 L740.500000,374.850006 M1061.599976,375.000000 L1060.500000,375.350006 L1060.349976,375.350006 L1059.750000,375.500000 L1059.250000,375.600006 L1059.000000,375.600006 L1059.000000,374.600006 L1061.599976,375.000000 M1066.750000,375.000000 L1072.099976,373.850006 L1072.099976,376.100006 L1071.599976,376.000000 L1071.500000,376.000000 L1070.250000,375.750000 L1070.099976,375.750000 L1066.750000,375.000000 M704.000000,376.350006 L714.750000,374.500000 L714.849976,377.250000 L714.349976,377.250000 L714.250000,377.250000 L712.099976,377.600006 L710.500000,377.850006 L708.349976,378.250000 L704.849976,378.850006 L704.349976,379.000000 L704.099976,379.000000 L704.000000,376.350006 M684.750000,376.500000 L684.849976,377.000000 L684.849976,378.350006 L684.750000,378.750000 L684.599976,378.850006 L684.500000,378.850006 L683.750000,379.000000 L683.000000,379.100006 L682.349976,379.250000 L681.599976,379.350006 L680.849976,379.500000 L680.250000,379.600006 L679.500000,379.750000 L678.750000,379.850006 L678.099976,380.000000 L678.000000,380.000000 L670.349976,378.250000 L684.750000,375.850006 L684.750000,376.500000 M1059.000000,376.600006 L1064.349976,375.500000 L1070.599976,376.600006 L1063.599976,378.100006 L1059.000000,377.250000 L1059.000000,376.600006 M1057.500000,376.850006 L1058.349976,376.750000 L1058.349976,377.100006 L1057.500000,376.850006 M719.599976,377.100006 L721.849976,376.750000 L721.849976,379.600006 L719.599976,380.000000 L719.599976,377.100006 M1066.349976,378.600006 L1072.000000,377.350006 L1072.000000,379.600006 L1066.349976,378.600006 M703.500000,379.100006 L702.750000,379.250000 L701.349976,379.500000 L700.599976,379.600006 L699.250000,379.850006 L698.500000,380.000000 L697.099976,380.250000 L695.750000,380.500000 L695.000000,380.600006 L693.599976,380.850006 L692.849976,381.000000 L692.250000,381.100006 L691.500000,381.250000 L690.750000,381.350006 L690.099976,381.500000 L689.349976,381.600006 L688.599976,381.750000 L688.000000,381.850006 L687.349976,382.000000 L687.000000,382.000000 L685.500000,381.750000 L685.500000,379.600006 L703.349976,376.500000 L703.500000,379.100006 M704.099976,379.850006 L714.849976,378.000000 L715.000000,380.850006 L704.349976,382.750000 L704.099976,379.850006 M685.000000,380.000000 L685.000000,380.250000 L684.849976,381.600006 L680.250000,380.500000 L684.750000,379.750000 L685.000000,380.000000 M703.599976,380.100006 L703.599976,380.750000 L703.750000,381.600006 L703.750000,382.850006 L696.250000,384.250000 L689.250000,382.600006 L703.349976,380.100006 L703.599976,380.100006 M672.500000,381.000000 L672.349976,381.000000 L671.599976,381.100006 L670.849976,381.250000 L670.250000,381.350006 L669.500000,381.500000 L668.750000,381.600006 L668.099976,381.750000 L667.349976,381.850006 L666.750000,382.000000 L666.500000,382.000000 L666.250000,379.500000 L672.500000,381.000000 M674.250000,381.500000 L674.750000,381.500000 L681.349976,383.000000 L681.000000,383.100006 L680.849976,383.100006 L680.250000,383.250000 L679.500000,383.350006 L678.750000,383.500000 L678.099976,383.600006 L677.349976,383.750000 L676.000000,384.000000 L675.349976,384.100006 L675.250000,384.100006 L674.599976,384.250000 L673.849976,384.250000 L674.250000,381.500000 M667.849976,382.750000 L673.500000,381.750000 L673.500000,382.750000 L673.599976,383.600006 L673.599976,384.100006 L667.849976,382.750000 M683.599976,383.500000 L685.000000,383.850006 L685.099976,384.100006 L685.099976,385.750000 L685.250000,386.000000 L685.250000,386.250000 L684.000000,386.350006 L682.250000,386.100006 L682.099976,383.750000 L683.599976,383.500000 M681.599976,384.600006 L681.349976,385.850006 L676.849976,384.750000 L681.349976,384.000000 L681.599976,384.600006 M671.849976,384.750000 L671.750000,384.750000 L671.000000,384.850006 L670.349976,385.000000 L669.599976,385.100006 L668.849976,385.250000 L668.250000,385.350006 L667.500000,385.500000 L666.849976,385.600006 L666.500000,385.600006 L666.500000,385.100006 L666.349976,383.350006 L671.849976,384.750000 M689.500000,384.850006 L689.500000,385.350006 L685.750000,386.000000 L685.599976,384.000000 L689.500000,384.850006 M668.000000,386.350006 L673.500000,385.350006 L673.500000,387.750000 L668.000000,386.350006 M681.250000,386.850006 L675.349976,388.000000 L674.250000,387.850006 L674.099976,385.250000 L681.250000,386.850006 M666.500000,387.600006 L666.500000,387.000000 L672.500000,388.350006 L666.599976,389.500000 L666.599976,388.500000 L666.500000,387.600006 M774.599976,717.250000 L774.599976,717.849976 L773.500000,718.250000 L773.500000,717.599976 L774.599976,717.250000 "/> -->
		<path style="fill:rgb(255,255,255);opacity:1;stroke-width:0"
		 d="M895.849976,314.000000 L904.750000,315.500000 L907.000000,315.750000 L907.349976,315.850006 L918.099976,317.750000 L918.599976,319.000000 L907.250000,320.850006 L907.500000,336.000000 L914.250000,335.000000 L956.849976,342.500000 L981.000000,346.850006 L981.349976,346.850006 L981.500000,349.500000 L981.599976,351.750000 L1001.750000,355.000000 L1020.099976,358.250000 L1020.250000,350.750000 L1007.349976,348.500000 L1007.349976,347.250000 L1007.849976,347.100006 L1021.099976,344.850006 L1024.099976,345.100006 L1024.500000,344.000000 L1037.750000,341.500000 L1048.500000,343.250000 L1050.599976,343.100006 L1051.750000,343.350006 L1052.000000,343.750000 L1064.000000,345.850006 L1064.349976,347.100006 L1052.000000,349.600006 L1051.750000,364.000000 L1055.750000,364.600006 L1074.000000,368.000000 L1073.849976,369.600006 L1073.750000,380.000000 L1074.250000,380.100006 L1074.099976,382.600006 L1074.250000,382.750000 L1074.099976,384.500000 L1074.099976,392.250000 L1073.849976,410.850006 L1073.750000,411.850006 L1073.750000,414.600006 L1073.500000,423.850006 L1073.349976,426.250000 L1073.349976,428.100006 L1073.349976,435.850006 L1073.250000,441.500000 L1073.250000,444.250000 L1072.750000,467.100006 L1072.599976,469.350006 L1072.599976,471.250000 L1072.599976,478.850006 L1072.000000,509.600006 L1071.849976,512.000000 L1071.849976,513.750000 L1071.750000,521.349976 L1071.599976,538.599976 L1071.250000,551.500000 L1071.250000,553.750000 L1071.099976,554.000000 L1071.099976,555.849976 L1071.000000,563.250000 L1070.500000,592.750000 L1070.500000,595.349976 L1070.500000,595.599976 L1070.349976,597.349976 L1070.349976,604.500000 L1069.849976,632.599976 L1069.750000,633.349976 L1069.750000,636.599976 L1069.750000,637.849976 L1069.599976,645.349976 L1069.099976,674.599976 L1069.000000,676.750000 L1068.750000,698.349976 L1068.500000,712.000000 L1065.250000,713.099976 L1055.599976,709.849976 L1055.750000,693.849976 L1056.099976,681.599976 L1042.500000,686.599976 L1042.349976,689.500000 L1042.250000,697.599976 L1040.599976,698.099976 L1024.500000,704.500000 L1024.250000,729.599976 L1016.250000,732.849976 L1015.000000,733.000000 L1011.599976,731.849976 L1011.750000,709.349976 L1011.349976,709.349976 L996.349976,704.250000 L988.349976,707.250000 L988.599976,707.349976 L988.750000,708.500000 L988.849976,710.750000 L964.750000,719.849976 L964.750000,730.599976 L964.849976,757.099976 L957.349976,760.250000 L955.000000,760.849976 L952.099976,759.849976 L951.599976,759.349976 L951.349976,735.849976 L933.349976,742.599976 L931.250000,743.349976 L917.250000,738.000000 L893.599976,746.849976 L893.250000,746.750000 L877.349976,752.599976 L877.000000,753.349976 L869.250000,756.250000 L869.849976,795.099976 L865.849976,796.599976 L856.099976,792.599976 L855.500000,753.849976 L836.500000,746.099976 L835.849976,746.250000 L835.750000,746.099976 L823.000000,741.099976 L823.750000,775.599976 L819.750000,777.000000 L810.500000,773.099976 L809.500000,735.250000 L809.349976,729.349976 L800.250000,732.599976 L799.750000,732.500000 L773.599976,722.000000 L774.599976,754.750000 Q771.000000,756.349976 770.500000,756.000000 L761.849976,752.500000 L760.599976,715.349976 L743.099976,708.250000 L727.599976,713.250000 L726.099976,712.599976 L719.250000,710.000000 L720.000000,731.599976 L716.099976,732.849976 L707.849976,729.500000 L706.849976,704.849976 L705.099976,704.099976 L700.750000,702.250000 L700.599976,702.099976 L699.250000,701.599976 L698.250000,676.599976 L698.000000,672.349976 L697.500000,660.000000 L695.750000,617.750000 L694.000000,574.849976 L693.849976,571.849976 L692.500000,538.500000 L692.250000,535.000000 L692.099976,531.349976 L690.349976,489.850006 L690.349976,487.350006 L669.099976,481.250000 L668.849976,478.850006 L669.099976,478.750000 L669.349976,478.000000 L669.750000,477.850006 L670.000000,477.850006 L670.000000,475.350006 L669.599976,466.600006 L668.849976,466.350006 L669.000000,465.500000 L689.099976,461.250000 L688.500000,442.750000 L683.349976,441.350006 L667.099976,437.100006 L667.000000,434.600006 L667.349976,434.500000 L667.500000,433.750000 L668.099976,433.750000 L668.099976,433.250000 L668.099976,432.250000 L667.599976,422.250000 L666.849976,422.000000 L666.750000,421.250000 L667.349976,421.100006 L687.250000,417.500000 L686.500000,397.350006 L665.000000,392.350006 L664.849976,389.850006 L664.599976,379.100006 L664.250000,379.000000 L664.500000,377.350006 L714.500000,368.600006 L713.599976,344.250000 L703.750000,342.250000 L703.349976,342.100006 L703.599976,340.850006 L719.099976,338.350006 L722.750000,339.000000 L722.599976,337.850006 L723.349976,337.750000 L738.000000,335.350006 L747.250000,337.100006 L749.099976,337.350006 L749.349976,337.500000 L760.250000,339.600006 L760.599976,339.850006 L760.599976,340.850006 L749.500000,342.750000 L750.099976,362.750000 L776.349976,358.250000 L790.250000,360.750000 L790.500000,361.600006 L794.849976,362.500000 L794.849976,361.500000 L794.750000,359.850006 L795.750000,359.600006 L817.500000,364.000000 L817.599976,363.750000 L817.599976,361.500000 L817.849976,361.350006 L817.599976,351.500000 L817.250000,349.850006 L818.000000,349.750000 L849.500000,344.250000 L862.000000,346.850006 L869.750000,345.250000 L870.099976,342.600006 L876.349976,341.350006 L876.099976,321.850006 L865.849976,320.100006 L865.599976,320.000000 L865.849976,318.850006 L879.099976,316.850006 L882.349976,317.100006 L882.349976,316.250000 L883.000000,316.100006 L895.849976,314.000000 M902.099976,320.750000 L902.000000,321.750000 L888.349976,323.850006 L880.500000,322.600006 L880.750000,340.600006 L903.250000,336.750000 L903.099976,320.850006 L902.099976,320.750000 M744.849976,343.350006 L741.500000,342.750000 L741.500000,344.000000 L740.849976,344.100006 L725.500000,346.500000 L718.500000,345.250000 L719.250000,367.750000 L745.349976,363.350006 L744.849976,343.350006 M850.500000,346.250000 L850.500000,349.000000 L850.849976,349.100006 L851.000000,349.100006 L852.250000,349.350006 L852.849976,349.500000 L853.000000,349.500000 L853.500000,348.250000 L853.500000,346.850006 L850.500000,346.250000 M853.849976,347.000000 L854.099976,349.750000 L854.349976,349.750000 L855.349976,350.000000 L856.750000,350.250000 L856.849976,350.250000 L857.250000,350.250000 L857.500000,347.600006 L853.849976,347.000000 M839.000000,348.000000 L839.349976,350.600006 L839.750000,350.600006 L840.250000,350.500000 L841.000000,350.350006 L841.750000,350.250000 L842.349976,350.100006 L843.099976,350.000000 L843.849976,349.850006 L844.500000,349.750000 L845.250000,349.600006 L846.000000,349.500000 L847.349976,349.250000 L848.599976,349.000000 L848.599976,346.250000 L839.000000,348.000000 M869.849976,347.100006 L863.099976,348.250000 L863.099976,351.100006 L863.500000,351.000000 L863.599976,351.000000 L864.099976,350.850006 L864.849976,350.750000 L865.599976,350.600006 L866.250000,350.500000 L867.000000,350.350006 L867.599976,350.250000 L868.349976,350.100006 L869.099976,350.000000 L869.250000,350.000000 L869.750000,350.000000 L869.849976,347.100006 M857.849976,347.750000 L857.750000,350.500000 L858.000000,350.500000 L858.099976,350.500000 L859.349976,350.750000 L860.000000,350.850006 L860.099976,350.850006 L861.349976,351.000000 L861.250000,348.350006 L857.849976,347.750000 M838.599976,349.350006 L838.599976,348.000000 L828.849976,349.750000 L828.849976,351.600006 L831.000000,352.100006 L831.500000,352.100006 L831.750000,352.000000 L832.250000,351.850006 L833.000000,351.750000 L833.750000,351.600006 L834.349976,351.500000 L835.099976,351.350006 L835.849976,351.250000 L837.250000,351.000000 L837.599976,351.000000 L838.500000,350.750000 L838.599976,349.350006 M828.500000,350.100006 L828.250000,349.750000 L823.750000,350.600006 L828.500000,351.600006 L828.500000,350.100006 M853.349976,350.350006 L850.349976,349.850006 L850.500000,352.350006 L850.599976,352.350006 L851.849976,352.600006 L852.500000,352.750000 L853.099976,352.850006 L853.250000,352.850006 L853.599976,351.250000 L853.599976,350.850006 L853.349976,350.350006 M857.349976,351.100006 L854.000000,350.600006 L854.000000,353.000000 L854.500000,353.100006 L854.599976,353.100006 L855.599976,353.350006 L856.250000,353.500000 L856.349976,353.500000 L857.500000,353.600006 L857.349976,351.100006 M839.099976,351.600006 L839.099976,354.000000 L839.599976,354.000000 L839.849976,353.850006 L840.349976,353.850006 L840.599976,353.750000 L841.000000,353.750000 L841.500000,353.600006 L842.000000,353.500000 L842.500000,353.500000 L842.750000,353.350006 L843.099976,353.350006 L843.599976,353.250000 L844.099976,353.100006 L844.500000,353.100006 L845.000000,353.000000 L845.750000,352.850006 L846.349976,352.750000 L847.099976,352.600006 L847.849976,352.500000 L848.500000,352.350006 L848.750000,352.350006 L848.750000,349.850006 L839.099976,351.600006 M861.250000,351.850006 L857.849976,351.350006 L858.000000,353.750000 L858.250000,353.850006 L858.349976,353.850006 L858.849976,354.000000 L860.250000,354.250000 L860.849976,354.350006 L861.099976,354.350006 L861.250000,351.850006 M863.099976,351.850006 L863.250000,354.350006 L863.500000,354.350006 L864.099976,354.250000 L864.750000,354.100006 L865.500000,354.000000 L866.099976,353.850006 L866.849976,353.750000 L867.500000,353.600006 L868.250000,353.500000 L868.849976,353.350006 L869.599976,353.250000 L869.849976,353.250000 L869.849976,350.750000 L863.099976,351.850006 M838.750000,352.250000 L838.750000,351.600006 L831.750000,352.750000 L831.750000,353.750000 L831.349976,353.850006 L831.500000,355.350006 L831.750000,355.350006 L832.099976,355.250000 L832.849976,355.100006 L833.500000,355.000000 L833.849976,355.000000 L834.250000,354.850006 L835.000000,354.750000 L835.599976,354.600006 L836.099976,354.600006 L836.349976,354.500000 L837.099976,354.350006 L837.750000,354.250000 L838.250000,354.250000 L838.500000,354.100006 L838.599976,354.100006 L838.750000,352.250000 M822.099976,352.350006 L819.250000,351.750000 L819.250000,354.000000 L822.250000,353.500000 L822.250000,352.600006 L822.099976,352.350006 M825.500000,353.000000 L822.599976,352.350006 L822.599976,353.500000 L825.500000,353.000000 M1033.750000,353.000000 L1025.000000,351.500000 L1024.849976,359.500000 L1047.099976,363.100006 L1047.250000,350.500000 L1033.750000,353.000000 M853.500000,353.750000 L850.500000,353.250000 L850.599976,355.850006 L853.599976,356.500000 L853.599976,354.250000 L853.500000,353.750000 M829.000000,354.250000 L829.000000,355.750000 L829.750000,355.750000 L829.849976,354.100006 L829.000000,354.250000 M987.500000,354.350006 L981.599976,353.350006 L981.599976,356.250000 L981.849976,356.250000 L982.000000,356.250000 L983.250000,356.500000 L984.599976,356.750000 L986.000000,357.000000 L986.099976,357.000000 L987.250000,357.250000 L987.500000,354.350006 M857.500000,354.500000 L854.099976,353.850006 L854.250000,356.600006 L857.599976,357.250000 L857.599976,356.500000 L857.500000,354.750000 L857.500000,354.500000 M827.000000,354.600006 L827.000000,355.500000 L828.500000,355.750000 L828.500000,355.250000 L828.349976,354.350006 L827.000000,354.600006 M839.250000,354.850006 L839.349976,357.500000 L848.750000,355.850006 L848.599976,353.250000 L839.250000,354.850006 M826.000000,354.850006 L824.750000,355.000000 L826.099976,355.350006 L826.000000,354.850006 M861.250000,355.250000 L858.000000,354.600006 L858.099976,357.350006 L861.349976,358.000000 L861.250000,355.250000 M863.250000,355.250000 L863.250000,357.850006 L870.000000,356.750000 L869.849976,354.100006 L863.250000,355.250000 M831.500000,356.350006 L838.500000,357.750000 L838.750000,357.750000 L838.750000,355.000000 L831.500000,356.350006 M820.000000,356.100006 L820.099976,357.350006 L820.349976,357.350006 L821.000000,357.250000 L821.599976,357.100006 L821.750000,357.100006 L822.099976,357.100006 L822.099976,356.500000 L820.000000,356.100006 M1001.750000,357.000000 L988.750000,354.600006 L988.750000,357.500000 L988.849976,357.500000 L989.500000,357.600006 L990.099976,357.750000 L990.849976,357.850006 L991.500000,358.000000 L992.250000,358.100006 L993.599976,358.350006 L994.349976,358.500000 L995.000000,358.600006 L995.750000,358.750000 L996.349976,358.850006 L997.099976,359.000000 L997.750000,359.100006 L998.500000,359.250000 L999.099976,359.350006 L999.849976,359.500000 L1000.500000,359.600006 L1001.250000,359.750000 L1001.349976,359.750000 L1001.750000,359.750000 L1002.599976,360.000000 L1002.750000,360.000000 L1003.349976,360.100006 L1004.000000,360.250000 L1004.750000,360.350006 L1005.349976,360.500000 L1006.099976,360.600006 L1006.750000,360.750000 L1007.500000,360.850006 L1008.099976,361.000000 L1008.849976,361.100006 L1009.500000,361.250000 L1010.250000,361.350006 L1010.849976,361.500000 L1011.599976,361.600006 L1013.000000,361.850006 L1013.750000,362.000000 L1014.349976,362.100006 L1015.099976,362.250000 L1015.250000,362.250000 L1015.500000,359.500000 L1001.750000,357.000000 M825.750000,357.250000 L824.349976,357.500000 L824.349976,357.850006 L825.000000,357.850006 L825.250000,357.750000 L825.750000,357.750000 L826.000000,357.600006 L826.099976,357.600006 L826.099976,357.500000 L826.099976,357.250000 L825.750000,357.250000 M987.500000,358.000000 L981.500000,357.000000 L981.500000,359.600006 L981.849976,359.600006 L982.000000,359.600006 L982.599976,359.750000 L983.250000,359.850006 L984.599976,360.100006 L986.000000,360.350006 L986.099976,360.350006 L987.349976,360.600006 L987.500000,358.000000 M822.000000,358.000000 L821.000000,358.100006 L821.349976,358.350006 L821.750000,358.350006 L822.250000,358.250000 L822.000000,358.000000 M826.849976,358.350006 L827.000000,359.500000 L827.849976,359.500000 L828.599976,359.500000 L828.599976,358.100006 L826.849976,358.350006 M831.500000,358.350006 L831.500000,358.850006 L832.849976,358.600006 L831.500000,358.350006 M824.349976,358.850006 L826.000000,359.250000 L826.099976,358.500000 L824.349976,358.850006 M1020.099976,360.250000 L1016.000000,359.500000 L1016.000000,362.350006 L1016.500000,362.500000 L1016.599976,362.500000 L1017.099976,362.600006 L1017.849976,362.750000 L1018.500000,362.850006 L1019.250000,363.000000 L1019.849976,363.100006 L1020.000000,363.100006 L1020.099976,360.250000 M822.250000,360.350006 L820.099976,359.850006 L820.000000,361.000000 L822.349976,360.600006 L822.349976,360.500000 L822.250000,360.350006 M780.500000,360.750000 L777.500000,360.100006 L777.500000,362.000000 L780.750000,361.350006 L780.500000,360.750000 M988.349976,360.850006 L988.750000,360.850006 L988.849976,360.850006 L990.099976,361.100006 L991.500000,361.350006 L992.849976,361.600006 L994.250000,361.850006 L995.599976,362.100006 L997.000000,362.350006 L998.349976,362.600006 L999.750000,362.850006 L1001.099976,363.100006 L1001.250000,363.100006 L1001.750000,363.100006 L1006.349976,364.100006 L1006.500000,364.100006 L1007.750000,364.350006 L1009.099976,364.600006 L1010.500000,364.850006 L1011.849976,365.100006 L1013.250000,365.350006 L1014.599976,365.600006 L1014.750000,365.600006 L1015.250000,365.750000 L1015.349976,363.100006 L1001.750000,360.750000 L988.500000,358.250000 L988.349976,360.850006 M782.349976,361.100006 L781.099976,360.850006 L781.099976,361.350006 L782.349976,361.100006 M987.349976,361.500000 L981.500000,360.350006 L981.500000,363.000000 L987.349976,364.000000 L987.349976,361.500000 M775.500000,362.350006 L775.500000,360.000000 L758.349976,363.000000 L758.599976,365.250000 L770.750000,363.250000 L773.750000,362.750000 L775.500000,362.350006 M796.099976,362.750000 L798.750000,363.350006 L799.250000,363.500000 L799.500000,364.600006 L802.599976,364.100006 L815.250000,366.600006 L815.349976,366.100006 L815.349976,365.600006 L796.099976,361.750000 L796.099976,362.750000 M758.000000,363.250000 L757.750000,363.100006 L750.250000,364.350006 L750.250000,367.350006 L755.750000,366.350006 L755.849976,366.350006 L756.500000,366.350006 L756.599976,365.750000 L757.849976,365.500000 L758.000000,363.250000 M1024.849976,364.100006 L1025.500000,364.100006 L1025.599976,364.100006 L1026.099976,364.250000 L1026.849976,364.350006 L1027.500000,364.500000 L1028.250000,364.600006 L1028.849976,364.750000 L1029.599976,364.850006 L1030.250000,365.000000 L1031.000000,365.100006 L1031.599976,365.250000 L1032.349976,365.350006 L1033.750000,365.600006 L1034.500000,365.750000 L1035.099976,365.850006 L1035.849976,366.000000 L1036.500000,366.100006 L1037.250000,366.250000 L1037.849976,366.350006 L1038.599976,366.500000 L1039.250000,366.600006 L1040.000000,366.750000 L1041.349976,367.000000 L1042.750000,367.250000 L1042.849976,367.250000 L1043.500000,367.250000 L1043.750000,364.500000 L1024.849976,361.100006 L1024.849976,364.100006 M1020.099976,364.000000 L1016.000000,363.250000 L1016.000000,365.850006 L1016.099976,365.850006 L1017.349976,366.100006 L1018.750000,366.350006 L1018.849976,366.350006 L1020.000000,366.600006 L1020.099976,364.000000 M1001.750000,364.100006 L988.500000,361.750000 L988.599976,364.250000 L1001.750000,366.600006 L1015.500000,369.100006 L1015.500000,366.600006 L1001.750000,364.100006 M1047.000000,365.000000 L1044.099976,364.600006 L1044.099976,367.500000 L1044.849976,367.600006 L1045.500000,367.750000 L1046.250000,367.850006 L1046.349976,367.850006 L1047.000000,368.000000 L1047.000000,365.000000 M740.750000,366.100006 L740.849976,369.000000 L741.500000,368.850006 L741.599976,368.850006 L742.250000,368.750000 L744.349976,368.350006 L744.500000,368.350006 L745.599976,368.250000 L745.500000,365.250000 L740.750000,366.100006 M817.599976,366.100006 L815.849976,365.750000 L815.849976,366.750000 L816.500000,367.000000 L816.750000,368.100006 L815.849976,368.600006 L817.750000,368.850006 L817.599976,366.100006 M740.250000,366.250000 L740.000000,366.250000 L722.750000,369.250000 L723.000000,372.100006 L723.750000,372.000000 L723.849976,372.000000 L724.500000,371.850006 L725.849976,371.600006 L726.599976,371.500000 L727.349976,371.350006 L728.000000,371.250000 L728.750000,371.100006 L729.500000,371.000000 L730.099976,370.850006 L730.849976,370.750000 L731.599976,370.600006 L732.250000,370.500000 L733.000000,370.350006 L733.750000,370.250000 L734.349976,370.100006 L735.099976,370.000000 L735.849976,369.850006 L737.250000,369.600006 L738.000000,369.500000 L739.349976,369.250000 L740.099976,369.100006 L740.349976,369.100006 L740.349976,367.600006 L740.250000,366.850006 L740.250000,366.250000 M1055.599976,366.600006 L1051.750000,366.000000 L1051.599976,368.750000 L1055.250000,369.500000 L1055.599976,369.500000 L1056.599976,369.750000 L1056.750000,369.750000 L1058.000000,370.000000 L1058.099976,370.000000 L1060.000000,370.500000 L1067.849976,368.850006 L1055.599976,366.600006 M758.099976,367.600006 L756.849976,367.100006 L750.349976,368.100006 L750.349976,370.850006 L757.849976,369.500000 L758.099976,367.600006 M1020.000000,367.350006 L1016.000000,366.750000 L1016.000000,369.350006 L1020.099976,370.000000 L1020.000000,367.350006 M1024.750000,367.500000 L1025.599976,367.600006 L1025.750000,367.600006 L1026.250000,367.750000 L1027.000000,367.850006 L1027.599976,368.000000 L1028.349976,368.100006 L1029.000000,368.250000 L1029.750000,368.350006 L1030.349976,368.500000 L1031.099976,368.600006 L1031.750000,368.750000 L1032.500000,368.850006 L1033.099976,369.000000 L1033.849976,369.100006 L1034.500000,369.250000 L1035.250000,369.350006 L1035.849976,369.500000 L1036.599976,369.600006 L1037.250000,369.750000 L1038.000000,369.850006 L1038.599976,370.000000 L1040.000000,370.250000 L1041.349976,370.500000 L1042.750000,370.750000 L1042.849976,370.750000 L1043.349976,370.850006 L1043.500000,368.250000 L1024.849976,364.850006 L1024.750000,367.500000 M763.349976,368.500000 L758.500000,367.500000 L758.599976,369.350006 L763.349976,368.500000 M1047.000000,368.850006 L1044.099976,368.350006 L1044.099976,371.000000 L1045.500000,371.250000 L1046.099976,371.350006 L1046.250000,371.350006 L1046.849976,371.500000 L1047.000000,368.850006 M815.349976,369.350006 L813.099976,369.000000 L806.849976,370.100006 L815.500000,372.000000 L815.500000,371.750000 L815.349976,369.350006 M719.349976,369.750000 L719.599976,372.750000 L720.250000,372.600006 L720.349976,372.600006 L721.599976,372.350006 L721.750000,372.350006 L721.349976,369.500000 L719.349976,369.750000 M770.349976,369.850006 L765.750000,369.000000 L758.599976,370.250000 L758.750000,373.000000 L771.000000,370.850006 L771.000000,369.850006 L770.349976,369.850006 M817.750000,369.850006 L816.000000,369.500000 L816.000000,372.250000 L817.849976,372.350006 L817.750000,369.850006 M740.849976,369.850006 L741.000000,372.500000 L742.349976,372.250000 L742.500000,372.250000 L744.500000,371.850006 L744.599976,371.850006 L745.750000,371.750000 L745.500000,369.100006 L740.849976,369.850006 M1055.599976,370.500000 L1051.599976,369.750000 L1051.599976,372.100006 L1055.599976,371.350006 L1057.849976,370.850006 L1055.599976,370.500000 M803.349976,370.750000 L803.500000,373.100006 L815.599976,375.600006 L815.599976,374.100006 L815.500000,373.000000 L804.099976,370.600006 L803.349976,370.750000 M1024.750000,371.000000 L1042.099976,374.100006 L1043.599976,373.850006 L1043.599976,373.750000 L1043.599976,372.350006 L1043.599976,371.750000 L1024.750000,368.350006 L1024.750000,371.000000 M758.099976,371.100006 L758.099976,370.350006 L750.500000,371.600006 L750.349976,374.500000 L758.250000,373.100006 L758.250000,372.100006 L758.099976,371.100006 M1065.500000,371.350006 L1071.849976,372.500000 L1072.000000,372.500000 L1072.099976,370.000000 L1065.500000,371.350006 M797.250000,371.850006 L798.500000,372.000000 L798.500000,371.600006 L797.250000,371.850006 M1047.000000,372.350006 L1044.099976,371.850006 L1044.099976,373.750000 L1047.000000,373.100006 L1047.000000,372.350006 M704.000000,372.500000 L704.000000,375.500000 L704.349976,375.350006 L704.500000,375.350006 L706.500000,375.000000 L708.599976,374.600006 L710.750000,374.250000 L711.099976,374.250000 L713.099976,373.850006 L714.500000,373.600006 L714.599976,373.600006 L714.599976,370.600006 L704.000000,372.500000 M740.349976,372.600006 L740.250000,370.000000 L723.000000,373.000000 L723.099976,375.600006 L723.500000,375.600006 L724.099976,375.500000 L724.750000,375.350006 L725.500000,375.250000 L726.250000,375.100006 L726.849976,375.000000 L727.599976,374.850006 L729.000000,374.600006 L729.750000,374.500000 L730.349976,374.350006 L731.099976,374.250000 L731.849976,374.100006 L732.500000,374.000000 L733.250000,373.850006 L734.599976,373.600006 L735.349976,373.500000 L736.750000,373.250000 L737.500000,373.100006 L738.099976,373.000000 L738.849976,372.850006 L740.250000,372.600006 L740.349976,372.600006 M1059.000000,372.750000 L1059.000000,373.750000 L1059.849976,373.850006 L1060.000000,373.850006 L1061.250000,374.100006 L1061.349976,374.100006 L1064.000000,374.500000 L1070.500000,373.250000 L1070.599976,373.250000 L1063.349976,371.850006 L1059.000000,372.750000 M1056.599976,373.250000 L1057.099976,373.350006 L1057.250000,373.350006 L1058.250000,373.600006 L1058.349976,372.850006 L1056.599976,373.250000 M817.849976,373.350006 L816.099976,373.100006 L816.250000,375.750000 L817.750000,376.000000 L817.849976,373.350006 M741.000000,373.350006 L741.099976,376.100006 L745.849976,375.350006 L745.599976,372.600006 L741.000000,373.350006 M719.500000,373.600006 L719.750000,376.250000 L720.000000,376.250000 L721.250000,376.000000 L721.750000,375.850006 L721.750000,373.250000 L719.500000,373.600006 M703.349976,373.750000 L703.349976,372.600006 L685.349976,375.750000 L685.599976,378.600006 L686.000000,378.600006 L686.599976,378.500000 L688.000000,378.250000 L688.750000,378.100006 L689.500000,378.000000 L690.099976,377.850006 L690.849976,377.750000 L691.599976,377.600006 L692.250000,377.500000 L693.000000,377.350006 L693.750000,377.250000 L694.349976,377.100006 L695.099976,377.000000 L695.849976,376.850006 L697.250000,376.600006 L698.000000,376.500000 L699.349976,376.250000 L700.099976,376.100006 L701.500000,375.850006 L702.250000,375.750000 L702.349976,375.750000 L703.500000,375.600006 L703.500000,374.600006 L703.349976,373.750000 M1055.500000,374.000000 L1054.349976,373.750000 L1051.599976,374.250000 L1051.599976,374.750000 L1051.599976,375.850006 L1052.599976,376.000000 L1054.750000,376.500000 L1055.099976,376.500000 L1055.500000,376.250000 L1056.250000,376.250000 L1056.349976,376.250000 L1057.349976,376.000000 L1058.000000,375.850006 L1058.349976,375.750000 L1058.250000,374.350006 L1055.500000,374.000000 M740.500000,374.850006 L740.500000,373.500000 L723.000000,376.500000 L723.250000,379.350006 L740.599976,376.250000 L740.599976,375.500000 L740.500000,374.850006 M1061.599976,375.000000 L1059.000000,374.600006 L1059.000000,375.600006 L1059.250000,375.600006 L1059.750000,375.500000 L1060.349976,375.350006 L1060.500000,375.350006 L1061.599976,375.000000 M1066.750000,375.000000 L1070.099976,375.750000 L1070.250000,375.750000 L1071.500000,376.000000 L1071.599976,376.000000 L1072.099976,376.100006 L1072.099976,373.850006 L1066.750000,375.000000 M704.000000,376.350006 L704.099976,379.000000 L704.349976,379.000000 L704.849976,378.850006 L708.349976,378.250000 L710.500000,377.850006 L712.099976,377.600006 L714.250000,377.250000 L714.349976,377.250000 L714.849976,377.250000 L714.750000,374.500000 L704.000000,376.350006 M684.750000,376.500000 L684.750000,375.850006 L670.349976,378.250000 L678.000000,380.000000 L678.099976,380.000000 L678.750000,379.850006 L679.500000,379.750000 L680.250000,379.600006 L680.849976,379.500000 L681.599976,379.350006 L682.349976,379.250000 L683.000000,379.100006 L683.750000,379.000000 L684.500000,378.850006 L684.599976,378.850006 L684.750000,378.750000 L684.849976,378.350006 L684.849976,377.000000 L684.750000,376.500000 M1059.000000,376.600006 L1059.000000,377.250000 L1063.599976,378.100006 L1070.599976,376.600006 L1064.349976,375.500000 L1059.000000,376.600006 M1057.500000,376.850006 L1058.349976,377.100006 L1058.349976,376.750000 L1057.500000,376.850006 M719.599976,377.100006 L719.599976,380.000000 L721.849976,379.600006 L721.849976,376.750000 L719.599976,377.100006 M1066.349976,378.600006 L1072.000000,379.600006 L1072.000000,377.350006 L1066.349976,378.600006 M703.500000,379.100006 L703.349976,376.500000 L685.500000,379.600006 L685.500000,381.750000 L687.000000,382.000000 L687.349976,382.000000 L688.000000,381.850006 L688.599976,381.750000 L689.349976,381.600006 L690.099976,381.500000 L690.750000,381.350006 L691.500000,381.250000 L692.250000,381.100006 L692.849976,381.000000 L693.599976,380.850006 L695.000000,380.600006 L695.750000,380.500000 L697.099976,380.250000 L698.500000,380.000000 L699.250000,379.850006 L700.599976,379.600006 L701.349976,379.500000 L702.750000,379.250000 L703.500000,379.100006 M704.099976,379.850006 L704.349976,382.750000 L715.000000,380.850006 L714.849976,378.000000 L704.099976,379.850006 M685.000000,380.000000 L684.750000,379.750000 L680.250000,380.500000 L684.849976,381.600006 L685.000000,380.250000 L685.000000,380.000000 M703.599976,380.100006 L703.349976,380.100006 L689.250000,382.600006 L696.250000,384.250000 L703.750000,382.850006 L703.750000,381.600006 L703.599976,380.750000 L703.599976,380.100006 M672.500000,381.000000 L666.250000,379.500000 L666.500000,382.000000 L666.750000,382.000000 L667.349976,381.850006 L668.099976,381.750000 L668.750000,381.600006 L669.500000,381.500000 L670.250000,381.350006 L670.849976,381.250000 L671.599976,381.100006 L672.349976,381.000000 L672.500000,381.000000 M674.250000,381.500000 L673.849976,384.250000 L674.599976,384.250000 L675.250000,384.100006 L675.349976,384.100006 L676.000000,384.000000 L677.349976,383.750000 L678.099976,383.600006 L678.750000,383.500000 L679.500000,383.350006 L680.250000,383.250000 L680.849976,383.100006 L681.000000,383.100006 L681.349976,383.000000 L674.750000,381.500000 L674.250000,381.500000 M667.849976,382.750000 L673.599976,384.100006 L673.599976,383.600006 L673.500000,382.750000 L673.500000,381.750000 L667.849976,382.750000 M683.599976,383.500000 L682.099976,383.750000 L682.250000,386.100006 L684.000000,386.350006 L685.250000,386.250000 L685.250000,386.000000 L685.099976,385.750000 L685.099976,384.100006 L685.000000,383.850006 L683.599976,383.500000 M681.599976,384.600006 L681.349976,384.000000 L676.849976,384.750000 L681.349976,385.850006 L681.599976,384.600006 M671.849976,384.750000 L666.349976,383.350006 L666.500000,385.100006 L666.500000,385.600006 L666.849976,385.600006 L667.500000,385.500000 L668.250000,385.350006 L668.849976,385.250000 L669.599976,385.100006 L670.349976,385.000000 L671.000000,384.850006 L671.750000,384.750000 L671.849976,384.750000 M689.500000,384.850006 L685.599976,384.000000 L685.750000,386.000000 L689.500000,385.350006 L689.500000,384.850006 M668.000000,386.350006 L673.500000,387.750000 L673.500000,385.350006 L668.000000,386.350006 M681.250000,386.850006 L674.099976,385.250000 L674.250000,387.850006 L675.349976,388.000000 L681.250000,386.850006 M666.500000,387.600006 L666.599976,388.500000 L666.599976,389.500000 L672.500000,388.350006 L666.500000,387.000000 L666.500000,387.600006 M774.599976,717.250000 L773.500000,717.599976 L773.500000,718.250000 L774.599976,717.849976 L774.599976,717.250000 "/>
	</g>
	
</svg>