<?xml version="1.0" encoding="utf-8"?>
<!-- Generator: Adobe Illustrator 15.0.0, SVG Export Plug-In . SVG Version: 6.00 Build 0)  -->
<!DOCTYPE svg PUBLIC "-//W3C//DTD SVG 1.1//EN" "http://www.w3.org/Graphics/SVG/1.1/DTD/svg11.dtd">
<svg version="1.1" id="Layer_1" xmlns="http://www.w3.org/2000/svg" xmlns:xlink="http://www.w3.org/1999/xlink" x="0px" y="0px"
	 width="100%" height="100%" viewBox="0 0 1920 1080" enable-background="new 0 0 1920 1080" xml:space="preserve">
<image overflow="visible" width="1920" height="1080" xlink:href="ProjectView_0045.jpg" >
</image>
<polygon fill="#FFFFFF" stroke="#000000" stroke-miterlimit="10" points="521,363 541,662 550,694 565,694 571,708 576,754 576,760 
	591,760 591,732 637,725 662,718 667,754 680,753 680,712 735,708 735,749 754,745 754,712 799,705 804,739 820,739 813,495 
	834,494 834,386 796,350 772,350 759,332 756,314 658,314 660,332 543,340 546,359 "/>
<polygon fill="#FFFFFF" stroke="#000000" stroke-miterlimit="10" points="933,328 933,623 1005,720 1222,703 1232,472 1257,469 
	1257,451 1236,439 1235,427 1257,423 1257,407 1236,397 1235,384 1257,384 1257,365 1216,342 1189,345 1169,328 1140,328 1138,314 
	1121,303 1064,303 1063,321 "/>
<polygon fill="#FFFFFF" stroke="#000000" stroke-miterlimit="10" points="1294,310 1279,569 1286.5,580 1286.5,595 1302,603 
	1319,603 1319,634 1397,688 1590,666 1610,444 1633,443 1633,427 1618,422 1616,403 1641,399 1641,386 1619,379 1619,364 1648,359 
	1648,345 1581,327 1555,329 1519,310 1521,286 1470,286 1469,303 "/>
</svg>
