<?xml version="1.0" encoding="utf-8"?>
<!-- Generator: Adobe Illustrator 15.0.0, SVG Export Plug-In . SVG Version: 6.00 Build 0)  -->
<!DOCTYPE svg PUBLIC "-//W3C//DTD SVG 1.1//EN" "http://www.w3.org/Graphics/SVG/1.1/DTD/svg11.dtd">
<svg version="1.1" id="Layer_1" xmlns="http://www.w3.org/2000/svg" xmlns:xlink="http://www.w3.org/1999/xlink" x="0px" y="0px"
	 width="100%" height="100%" viewBox="0 0 1920 1080" enable-background="new 0 0 1920 1080" xml:space="preserve">
<image overflow="visible" width="1920" height="1080" xlink:href="ProjectView_0001.jpg" >
</image>
<polygon opacity="0.25" fill="#FFFFFF"  stroke-miterlimit="10" points="664,376.667 664,392 686.667,397.333 
	686.667,416 668,420.667 668.667,434.667 686.667,442.667 686.667,461.333 670,461.333 668.667,480.667 686.667,487.333 
	697.333,700 707.333,705.333 707.333,729.333 716.667,732 716.667,709.333 726,713.333 742.667,706 759.333,714 759.333,749.333 
	773.333,758 773.333,722.667 800.667,732.667 808,728.667 811.333,772 823.333,775.333 823.333,740 856,753.333 856,796 
	869.333,796 869.333,754.667 916.001,737.999 932.668,742.666 952.668,735.332 952.668,759.332 965.335,755.999 965.335,720.666 
	986.002,710.666 998.668,705.332 1012.002,709.332 1012.002,732.666 1025.335,725.332 1025.335,704.666 1044.002,696.666 
	1044.002,684.666 1055.335,679.999 1055.335,713.332 1068.668,711.999 1073.335,367.999 983.335,352.666 982.002,343.999 
	912.668,335.333 868.667,341.333 868.667,345.333 848.668,343.999 818.667,349.332 818.667,359.332 817.334,362.666 
	792.667,357.332 778.667,356.666 "/>
<polygon opacity="0.09" fill="#FFFFFF"  stroke-miterlimit="10" points="432.667,323.998 432.667,335.333 
	448.001,339.331 448.001,359.998 435.334,359.998 436,375 451,379.5 451,396.5 438.5,400 439.5,414.5 454.5,418 468,607.5 
	477.5,610 477.5,632 488.5,636.5 488.5,615.5 503,610.5 518,617.5 520.5,649 529.5,651.5 529.5,623 548,629 552.5,625.5 557,665 
	565.5,667.5 565.5,638.5 589.5,644.5 589.5,678 600,682.5 600,646.5 644,634.5 653.5,636.5 680,629 683,655.5 694.999,653.45 
	686.667,487.333 668,479.5 670,461.333 686.667,459 686.667,442.667 668,436 668,416.5 686.667,412.5 686.667,399 664,390.5 
	664,373 791.5,355 786.5,317 702,300.5 702,296.5 653,285.5 608.5,293.5 607.5,298.5 579.5,302 577.5,311 552.5,312.5 532,306 "/>
<polygon opacity="0.34" fill="#FFFFFF"  stroke-miterlimit="10" points="573.5,278 489.5,264.5 489.5,261 
	451.5,252.5 409.5,257.5 409.5,270 254,285.5 254,295 269,298 269.5,314 259,314 260,331 272,331 274,351 262,351 262,364.5 
	275,367 290.5,533.5 303,540 305,558 313,560.5 311.5,540 332,544 336,570 344.5,570 342,552 359.5,552 363,583 373,583 372,557.5 
	386,564 389.5,595 401,595 397.5,566 440.5,555 452,560.5 464.19,554.022 453,420.5 439.5,414.5 438.5,400 448.478,397.206 
	447,379.5 436,375 432.667,359 445.5,356.5 445,343 432.667,339 432.667,323.998 534,303 552.5,309.5 573.5,306.5 "/>
</svg>
