<?xml version="1.0" encoding="utf-8"?>
<!-- Generator: Adobe Illustrator 15.0.0, SVG Export Plug-In . SVG Version: 6.00 Build 0)  -->
<!DOCTYPE svg PUBLIC "-//W3C//DTD SVG 1.1//EN" "http://www.w3.org/Graphics/SVG/1.1/DTD/svg11.dtd">
<svg version="1.1" id="Layer_1" xmlns="http://www.w3.org/2000/svg" xmlns:xlink="http://www.w3.org/1999/xlink" x="0px" y="0px"
	 width="100%" height="100%" viewBox="0 0 1920 1080" enable-background="new 0 0 1920 1080" xml:space="preserve">
<image overflow="visible" width="1920" height="1080" xlink:href="ProjectView_0015.jpg" >
</image>
<polygon opacity="0.34" fill="#FFFFFF"  stroke-miterlimit="10" points="1136.082,314.102 1136.082,365.099 
	1136.082,451 1151,451 1143.541,683 1156,683 1156,648 1209,650 1209,654 1254,655 1254,683 1269,683 1274,654 1322,652 1322,658 
	1344,661 1344,689 1358,689 1358,656 1417,656 1417,689 1426,689 1446,362 1412,314.102 1336,314.102 1327,303 1275,303 1278,314 
	"/>
<polygon opacity="0.33" fill="#FFFFFF"  stroke-miterlimit="10" points="781,273 731,315 731,401 751,401 756,574 
	999,581 1014,547 1014,285 920,284 921,273 865,273 861,273 "/>
<polygon opacity="0.45" fill="#FFFFFF"  stroke-miterlimit="10" points="361,299 296,330 281,330 257,337 257,353 
	277,353 280,370 262,378 264,391 278,391 283,407 268,415 267,427 283,427 309,653 320,653 317,620 361,623 361,627 398,627 
	407,621 411,653 425,653 425,626 462,623 462,632 491,629 495,653 505,653 505,628 558,628 558,657 569,657 569,623 622,565 
	607,306 587,305 517,299 489,310 486,291 431,291 421,297 "/>
</svg>
